inDegrees=no
num_controls=7
num_derivatives=13
num_iterations=110
num_multipliers=7
num_parameters=0
num_slacks=7
num_states=26
objective=0.497122
objective_accelerations=0.032373
objective_balance=0.003255
objective_effort=0.035052
objective_height=0.420953
objective_ligament=0.005489
solver_duration=1228.314104
status=Solve_Succeeded
success=true
DataType=double
version=3
OpenSimVersion=4.5
endheader
time	/jointset/ground_pelvis/pelvis_tilt/value	/jointset/ground_pelvis/pelvis_tx/value	/jointset/ground_pelvis/pelvis_ty/value	/jointset/hip_r/hip_flexion_r/value	/jointset/hip_r/hip_adduction_r/value	/jointset/hip_r/hip_rotation_r/value	/jointset/back/lumbar_extension/value	/jointset/patellofemoral_r/patellar_flexion_r/value	/jointset/knee_r/knee_flexion_r/value	/jointset/knee_r/knee_adduction_r/value	/jointset/knee_r/knee_rotation_r/value	/jointset/ankle_r/ankle_angle_r/value	/jointset/subtalar_r/subtalar_angle_r/value	/jointset/ground_pelvis/pelvis_tilt/speed	/jointset/ground_pelvis/pelvis_tx/speed	/jointset/ground_pelvis/pelvis_ty/speed	/jointset/hip_r/hip_flexion_r/speed	/jointset/hip_r/hip_adduction_r/speed	/jointset/hip_r/hip_rotation_r/speed	/jointset/back/lumbar_extension/speed	/jointset/patellofemoral_r/patellar_flexion_r/speed	/jointset/knee_r/knee_flexion_r/speed	/jointset/knee_r/knee_adduction_r/speed	/jointset/knee_r/knee_rotation_r/speed	/jointset/ankle_r/ankle_angle_r/speed	/jointset/subtalar_r/subtalar_angle_r/speed	/forceset/tau_hip_flexion_r	/forceset/tau_hip_adduction_r	/forceset/tau_hip_rotation_r	/forceset/tau_knee_flexion_r	/forceset/tau_ankle_angle_r	/forceset/tau_subtalar_angle_r	/forceset/tau_lumbar_extension	lambda_cid13_p0	lambda_cid14_p0	lambda_cid14_p1	lambda_cid14_p2	lambda_cid14_p3	lambda_cid14_p4	lambda_cid14_p5	/jointset/ground_pelvis/pelvis_tilt/accel	/jointset/ground_pelvis/pelvis_tx/accel	/jointset/ground_pelvis/pelvis_ty/accel	/jointset/hip_r/hip_flexion_r/accel	/jointset/hip_r/hip_adduction_r/accel	/jointset/hip_r/hip_rotation_r/accel	/jointset/back/lumbar_extension/accel	/jointset/patellofemoral_r/patellar_flexion_r/accel	/jointset/knee_r/knee_flexion_r/accel	/jointset/knee_r/knee_adduction_r/accel	/jointset/knee_r/knee_rotation_r/accel	/jointset/ankle_r/ankle_angle_r/accel	/jointset/subtalar_r/subtalar_angle_r/accel	gamma_cid13_p0	gamma_cid14_p0	gamma_cid14_p1	gamma_cid14_p2	gamma_cid14_p3	gamma_cid14_p4	gamma_cid14_p5
1.5	-0.1095219798315386	0.0617515376747798	0.8713917989704522	0.6654943494953024	-0.2271828808677877	-0.1446985141890284	-0.280063983215005	0.6421842327355243	0.6421842327353871	0.0412802151118307	0.1745127601842266	0.2562835598218824	0.05861535661634909	0.2348766102478295	0.1159590847528326	0.3225440916357725	-1.440921619261273	0.02011020466235982	-0.2813923045887728	0.7007937587983113	-1.737766655195731	-1.737766655195773	0.2747643523165756	6.745039278133312e-05	-0.6207652707712523	-0.151393021616639	-0.06636153220126072	-0.01606080403139406	0.006592837318574588	-0.3200634725522496	0.05439253558418438	-0.01199447335475845	0.1231733859615813	-34.4988879559732	-24.28512357325888	-5.415895560830177	-3.297470692159032	3.324617606069678	-662.6327393834049	57.06548193696726	0.05782854071802813	0.2694249977894001	-0.4433412774767516	-0.7299345677027673	-0.02316288736146554	-0.5349908355423214	1.215649627004927	-0.9978085884579309	-0.9978085884579315	0.4014135799037591	-0.004701804332536541	-0.4463504348371738	-0.03679145159409983	1.137351996079835e-07	1.500116753623457e-07	-5.596590189908185e-07	1.213627217220442e-06	-1.884381706574924e-08	1.759681587292522e-07	-8.752925399508318e-07
1.51	-0.1071707504649955	0.06292442780707302	0.874594350778553	0.6510506217733366	-0.2269836804458393	-0.1475383193357906	-0.2729962019183372	0.624759133895027	0.624759133895175	0.04404965494283918	0.1745134423775709	0.2500542149448778	0.05709877383040698	0.2353355318614209	0.1185994721409975	0.3178985765459424	-1.447618383226725	0.01972964686292599	-0.2865545224609825	0.712653277800782	-1.746998790727072	-1.746998790727093	0.2791051653884501	6.539225722118419e-05	-0.6250142144765897	-0.151897051346382	-0.0607987114209854	-0.01803059440327343	0.005940127860743198	-0.3170435115978579	0.05854722323015793	-0.01270784300897698	0.1179996348253565	-35.38459055206097	-22.8254329717942	-5.358500463567957	-3.434129257145427	2.81242615007215	-659.5611034543715	57.25258713891689	0.03487913933719469	0.2584249772005155	-0.4852733109825075	-0.608697819078572	-0.04539678053884349	-0.50450315488796	1.154719626892079	-0.8477933442055536	-0.847793344202304	0.4476159280999621	0.001719695024223384	-0.4007277127026539	-0.05320601841000867	1.232661217647512e-07	1.51562466367021e-07	-6.820394906091321e-07	1.236996417298587e-06	-7.057467132425569e-09	1.83016587628226e-07	-9.642342269693615e-07
1.52	-0.104815940848785	0.06412313768682205	0.8777484240985062	0.6365460963100933	-0.2267882645127496	-0.1504292798396382	-0.2658131021136398	0.607249338237471	0.6072493382379019	0.04686194305601968	0.1745140394921983	0.2437850683559556	0.05557795129021815	0.2355926601813099	0.1211230342439912	0.3128483940062623	-1.453081167516667	0.01935330689131324	-0.291623376006299	0.7238574604042085	-1.754706018607749	-1.754706018607747	0.2833340087511519	5.043464933978404e-05	-0.6287256131547536	-0.1522409724659496	-0.05523589064071299	-0.02000038477515042	0.00528741840290712	-0.3140235506434662	0.06270191087613237	-0.01342121266319181	0.1128258836891283	-36.23637363694141	-21.37454697737677	-5.300123349277214	-3.57382783586504	2.296011063367348	-656.6345441926196	57.51212455305622	0.01746988197765151	0.2460599407550598	-0.5242747674467493	-0.4831386326009375	-0.0223193217972399	-0.516317970163662	1.084582347196194	-0.6928270583250035	-0.6928270583249994	0.3790196380692	-0.007281698796800823	-0.3388414294026039	-0.004769729559030718	1.327475049375407e-07	1.524476065553934e-07	-8.025369685257176e-07	1.255735555579094e-06	4.976777334388548e-09	1.881472295105329e-07	-1.047581905644368e-06
1.53	-0.102459577026689	0.06534647549254137	0.8808500275981282	0.6219931349204569	-0.2265966630397813	-0.1533706125338962	-0.2585212904386868	0.5896701633565199	0.589670163356651	0.04971599725846148	0.1745146220511145	0.2374815156767475	0.05405440255847131	0.2356474271351548	0.1235223725032989	0.3074106296097786	-1.457302452327053	0.01896534628545799	-0.2966201335829782	0.7343872017042916	-1.760866283121663	-1.76086628312169	0.2874623230436347	6.050846158489311e-05	-0.6318912689407665	-0.1524446290447894	-0.04962169188718628	-0.02208521754609907	0.004653106521851368	-0.3110870267342395	0.06698312114872917	-0.014273267262845	0.1076269263048515	-37.04972602568136	-19.89803091172275	-5.305992357912094	-3.693570623457715	1.785298091757856	-653.8241432031658	57.6964876575481	-0.005406513551019614	0.2335523803613687	-0.5627401427877173	-0.3603065965114114	-0.04716069135362253	-0.4876777415138617	1.019519089295308	-0.5382544236341369	-0.5382544236384866	0.4275002627331509	0.004537907098241693	-0.2913593700434501	-0.02454613496953529	1.421762529398531e-07	1.526254927514441e-07	-9.21033765634217e-07	1.269555253199613e-06	1.727440974303625e-08	1.912402226876311e-07	-1.124985950454381e-06
1.54	-0.1001036428581821	0.0665931430032224	0.8838954108803776	0.6074042240444655	-0.2264089664251493	-0.156361177421938	-0.2511277115371566	0.5720372601752898	0.5720372601751171	0.05261088719140717	0.1745151825453241	0.2311491200963106	0.05252954075835133	0.2355067294634393	0.1257889752363298	0.3016043505317531	-1.460271064787596	0.01857233522464531	-0.3014698147634096	0.7442109057196097	-1.765451678663958	-1.765451678664015	0.2915011548519316	4.602170835283374e-05	-0.6344941934004932	-0.1525035861405522	-0.04400749313366245	-0.02417005031704493	0.004018794640780702	-0.3081505028250129	0.07126433142132679	-0.01512532186249412	0.1024279689205716	-37.82015875754441	-18.43091650393112	-5.310444037783357	-3.817039475750021	1.27053568958636	-651.1712134280546	57.95814551110048	-0.0216230431343479	0.21951283549961	-0.5979777037550889	-0.2326041626322587	-0.02332941278871448	-0.4869026909141096	0.9433748902432501	-0.3778532640013184	-0.3778532640013186	0.3611231412320146	-0.01219381189224906	-0.2262951641454579	0.02417016705636982	1.519860388222299e-07	1.518460767682589e-07	-1.047467335194851e-06	1.276050505558414e-06	3.073956040254563e-08	1.93378053329335e-07	-1.200445410060228e-06
1.55	-0.09775013255940616	0.06786179025949017	0.8868809505658001	0.5927919446868711	-0.2262252528368201	-0.1593997961568005	-0.2436394761172011	0.5543664345562932	0.5543664345563106	0.0555456029177572	0.1745157484314682	0.224793533053908	0.05100479023040348	0.2351602479287859	0.1279157510449455	0.2954484567716986	-1.461969201091169	0.01817069070326187	-0.3062281002094636	0.7533108511253872	-1.768443383577728	-1.768443383577758	0.2954208581629704	6.154822873966737e-05	-0.6365251363741733	-0.152420130615559	-0.03829326371174049	-0.02646715359605289	0.003390525773951283	-0.3053971151142113	0.07578996269250866	-0.01608844337753352	0.09717489719804759	-38.54322195861312	-16.9003303492457	-5.357250806984715	-3.927778528901298	0.7332752749789804	-648.6634892551797	58.20118438035394	-0.04640843491226608	0.2055619629978054	-0.6326256809537131	-0.1060600990069281	-0.04844705796662387	-0.4661780703579307	0.8745052940267868	-0.2193534571810588	-0.2193534571770374	0.4041266259997362	0.007806135981644194	-0.1767558318707927	0.004343827602493831	1.62234846609898e-07	1.499636821872586e-07	-1.183045446928596e-06	1.27410672315915e-06	4.55498951336999e-08	1.944153706150409e-07	-1.273664369322146e-06
1.56	-0.09540113662123249	0.06915096567573525	0.8898032852198573	0.5781691556192836	-0.226045528710938	-0.1624851750659035	-0.2360640010575313	0.5366737870177379	0.5366737870179413	0.05851886221721042	0.1745163456332087	0.2184205841881903	0.04948165637418182	0.2346038573428722	0.1298946072317881	0.2889633442587153	-1.462373006786226	0.01777444273574055	-0.310821849611793	0.7616588336624325	-1.769816062576149	-1.769816062576152	0.2992098694724065	5.228482822622902e-05	-0.6379665580635151	-0.1521802517952979	-0.03257903428982162	-0.02876425687505839	0.002762256907103901	-0.3026437274034098	0.08031559396369113	-0.01705156489256928	0.09192182547552037	-39.21459629394587	-15.37967681517726	-5.402479539171747	-4.042558989338921	0.1921154940443073	-646.3240452420987	58.52485647302211	-0.06360485338628483	0.1899289111448673	-0.6638214543408293	0.02626195907103277	-0.02225010201627599	-0.4539954821691991	0.7929823164968718	-0.05404808093161861	-0.0540480809316176	0.3349847409114661	-0.01715179607231988	-0.1083909072779432	0.05545482610994971	1.729747987903388e-07	1.495190100413949e-07	-1.321228001915741e-06	1.276617192427943e-06	5.898461260593204e-08	2.014906032547059e-07	-1.348205763737766e-06
